<svg width="22" height="23" viewBox="0 0 22 23" fill="none" xmlns="http://www.w3.org/2000/svg">
<path d="M1 15.3334C1 12.505 1 11.0908 1.87868 10.2121C2.75736 9.33337 4.17158 9.33337 7.00001 9.33337H15C17.8284 9.33337 19.2426 9.33337 20.1213 10.2121C21 11.0908 21 12.505 21 15.3334C21 18.1618 21 19.576 20.1213 20.4547C19.2426 21.3334 17.8284 21.3334 15 21.3334H7.00001C4.17158 21.3334 2.75736 21.3334 1.87868 20.4547C1 19.576 1 18.1618 1 15.3334Z" stroke="#4664CD" stroke-width="2"/>
<path d="M5 9.33339V7.33339C5 4.01967 7.6863 1.33337 11 1.33337C13.7958 1.33337 16.1449 3.24554 16.811 5.83338" stroke="#4664CD" stroke-width="2" stroke-linecap="round"/>
<path d="M11 13.3334V17.3334" stroke="#4664CD" stroke-width="2" stroke-linecap="round"/>
</svg>
